<svg width="27" height="27" viewBox="0 0 27 27" fill="none" xmlns="http://www.w3.org/2000/svg">
<path d="M25.38 13.7812C25.38 12.9038 25.3013 12.06 25.155 11.25H13.5V16.0369H20.16C19.8731 17.5838 19.0013 18.8944 17.6906 19.7719V22.8769H21.69C24.03 20.7225 25.38 17.55 25.38 13.7812Z" fill="#4285F4"/>
<path d="M13.5002 25.875C16.8414 25.875 19.6427 24.7669 21.6902 22.8769L17.6908 19.7719C16.5827 20.5144 15.1652 20.9531 13.5002 20.9531C10.277 20.9531 7.54891 18.7763 6.57578 15.8513H2.44141V19.0575C4.47766 23.1019 8.66266 25.875 13.5002 25.875Z" fill="#34A853"/>
<path d="M6.57563 15.8513C6.32813 15.1088 6.1875 14.3156 6.1875 13.5C6.1875 12.6844 6.32813 11.8913 6.57563 11.1488V7.9425H2.44125C1.575 9.66697 1.12424 11.5702 1.125 13.5C1.125 15.4969 1.60313 17.3869 2.44125 19.0575L6.57563 15.8513Z" fill="#FBBC05"/>
<path d="M13.5002 6.04688C15.317 6.04688 16.9483 6.67125 18.2308 7.8975L21.7802 4.34812C19.637 2.35125 16.8358 1.125 13.5002 1.125C8.66266 1.125 4.47766 3.89812 2.44141 7.9425L6.57578 11.1488C7.54891 8.22375 10.277 6.04688 13.5002 6.04688Z" fill="#EA4335"/>
</svg>
